<svg xmlns="http://www.w3.org/2000/svg" viewBox="0 0 260 100" width="260" height="100">

  <!-- Beige bakgrunn -->
  <rect width="260" height="100" fill="#fceee9" rx="16"/>

  <!-- "c" -->
  <text x="20" y="68" font-family="Poppins, sans-serif" font-size="52" font-weight="500" fill="#1e2a4a">c</text>

  <!-- Konvolutt som "o" -->
  <g transform="translate(58, 26)">
    <rect x="0" y="0" width="48" height="36" rx="5.5" fill="#fceee9" stroke="#1e2a4a" stroke-width="2.5"/>
    <path d="M0 4.5 L24 21 L48 4.5" stroke="#1e2a4a" stroke-width="2.2" fill="none" stroke-linecap="round"/>
    <path d="M0 33 L17 20" stroke="#1e2a4a" stroke-width="2" fill="none" stroke-linecap="round"/>
    <path d="M48 33 L31 20" stroke="#1e2a4a" stroke-width="2" fill="none" stroke-linecap="round"/>
    <path d="M24 29 C24 29 15 23 15 18 C15 15.1 17.3 13.2 19.3 13.2 C20.9 13.2 22.3 14.1 24 15.6 C25.7 14.1 27.1 13.2 28.7 13.2 C30.7 13.2 33 15.1 33 18 C33 23 24 29 24 29Z" fill="#d95f5f"/>
  </g>

  <!-- "re" -->
  <text x="114" y="68" font-family="Poppins, sans-serif" font-size="52" font-weight="500" fill="#1e2a4a">re</text>

</svg>
